<?xml version="1.0" encoding="UTF-8" standalone="no"?>
<!DOCTYPE svg PUBLIC "-//W3C//DTD SVG 1.1//EN" "http://www.w3.org/Graphics/SVG/1.1/DTD/svg11.dtd">

<!-- Created with Vectornator (http://vectornator.io/) -->
<svg height="100%" stroke-miterlimit="10" style="fill-rule:nonzero;clip-rule:evenodd;stroke-linecap:round;stroke-linejoin:round;" version="1.1" viewBox="0 0 708 548" width="100%" xml:space="preserve" xmlns="http://www.w3.org/2000/svg" xmlns:vectornator="http://vectornator.io" xmlns:xlink="http://www.w3.org/1999/xlink">
<metadata>
<vectornator:setting key="IsTimeLapseWatermarkDisabled" value="false"/>
<vectornator:setting key="UndoHistoryDisabled" value="true"/>
<vectornator:setting key="VNDimensionsVisible" value="true"/>
<vectornator:setting key="VNSnapToGuides" value="true"/>
<vectornator:setting key="WDCMYKEnabledKey" value="false"/>
<vectornator:setting key="WDDisplayWhiteBackground" value="false"/>
<vectornator:setting key="WDDynamicGuides" value="false"/>
<vectornator:setting key="WDGuidesVisible" value="true"/>
<vectornator:setting key="WDIsolateActiveLayer" value="false"/>
<vectornator:setting key="WDOutlineMode" value="false"/>
<vectornator:setting key="WDRulersVisible" value="true"/>
<vectornator:setting key="WDSnapToEdges" value="false"/>
<vectornator:setting key="WDSnapToGrid" value="false"/>
<vectornator:setting key="WDSnapToPoints" value="false"/>
<vectornator:setting key="WDUnits" value="Pixels"/>
</metadata>
<defs>
<filter color-interpolation-filters="sRGB" filterUnits="userSpaceOnUse" height="512" id="Filter" width="672" x="25.8996" y="13.1316">
<feDropShadow dx="7.89955" dy="6.13164" flood-color="#000000" flood-opacity="0.333" in="SourceGraphic" result="Shadow" stdDeviation="5"/>
</filter>
<path d="M59 17L649 17C666.121 17 680 30.8792 680 48L680 478C680 495.121 666.121 509 649 509L59 509C41.8792 509 28 495.121 28 478L28 48C28 30.8792 41.8792 17 59 17Z" fill-rule="evenodd" id="Fill"/>
<path d="M59 17L649 17C666.121 17 680 30.8792 680 48L680 478C680 495.121 666.121 509 649 509L59 509C41.8792 509 28 495.121 28 478L28 48C28 30.8792 41.8792 17 59 17Z" fill-rule="evenodd" id="Fill_2"/>
<path d="M59 17L649 17C666.121 17 680 30.8792 680 48L680 478C680 495.121 666.121 509 649 509L59 509C41.8792 509 28 495.121 28 478L28 48C28 30.8792 41.8792 17 59 17Z" fill-rule="evenodd" id="Fill_3"/>
<path d="M59 17L649 17C666.121 17 680 30.8792 680 48L680 478C680 495.121 666.121 509 649 509L59 509C41.8792 509 28 495.121 28 478L28 48C28 30.8792 41.8792 17 59 17Z" fill-rule="evenodd" id="Fill_4"/>
<path d="M59 17L649 17C666.121 17 680 30.8792 680 48L680 478C680 495.121 666.121 509 649 509L59 509C41.8792 509 28 495.121 28 478L28 48C28 30.8792 41.8792 17 59 17Z" fill-rule="evenodd" id="Fill_5"/>
<path d="M59 17L649 17C666.121 17 680 30.8792 680 48L680 478C680 495.121 666.121 509 649 509L59 509C41.8792 509 28 495.121 28 478L28 48C28 30.8792 41.8792 17 59 17Z" fill-rule="evenodd" id="Fill_6"/>
<path d="M59 17L649 17C666.121 17 680 30.8792 680 48L680 478C680 495.121 666.121 509 649 509L59 509C41.8792 509 28 495.121 28 478L28 48C28 30.8792 41.8792 17 59 17Z" fill-rule="evenodd" id="Fill_7"/>
<path d="M59 17L649 17C666.121 17 680 30.8792 680 48L680 478C680 495.121 666.121 509 649 509L59 509C41.8792 509 28 495.121 28 478L28 48C28 30.8792 41.8792 17 59 17Z" fill-rule="evenodd" id="Fill_8"/>
<path d="M59 17L649 17C666.121 17 680 30.8792 680 48L680 478C680 495.121 666.121 509 649 509L59 509C41.8792 509 28 495.121 28 478L28 48C28 30.8792 41.8792 17 59 17Z" fill-rule="evenodd" id="Fill_9"/>
<path d="M59 17L649 17C666.121 17 680 30.8792 680 48L680 478C680 495.121 666.121 509 649 509L59 509C41.8792 509 28 495.121 28 478L28 48C28 30.8792 41.8792 17 59 17Z" fill-rule="evenodd" id="Fill_10"/>
<path d="M59 17L649 17C666.121 17 680 30.8792 680 48L680 478C680 495.121 666.121 509 649 509L59 509C41.8792 509 28 495.121 28 478L28 48C28 30.8792 41.8792 17 59 17Z" fill-rule="evenodd" id="Fill_11"/>
<path d="M59 17L649 17C666.121 17 680 30.8792 680 48L680 478C680 495.121 666.121 509 649 509L59 509C41.8792 509 28 495.121 28 478L28 48C28 30.8792 41.8792 17 59 17Z" fill-rule="evenodd" id="Fill_12"/>
<path d="M59 17L649 17C666.121 17 680 30.8792 680 48L680 478C680 495.121 666.121 509 649 509L59 509C41.8792 509 28 495.121 28 478L28 48C28 30.8792 41.8792 17 59 17Z" fill-rule="evenodd" id="Fill_13"/>
<path d="M59 17L649 17C666.121 17 680 30.8792 680 48L680 478C680 495.121 666.121 509 649 509L59 509C41.8792 509 28 495.121 28 478L28 48C28 30.8792 41.8792 17 59 17Z" fill-rule="evenodd" id="Fill_14"/>
</defs>
<g id="Page-1" vectornator:layerName="Page-1">
<g filter="url(#Filter)" vectornator:shadowAngle="0.66006" vectornator:shadowColor="#000000" vectornator:shadowOffset="10" vectornator:shadowOpacity="0.333" vectornator:shadowRadius="10">
<g opacity="1">
<g opacity="1">
<path d="M59 17L649 17C666.121 17 680 30.8792 680 48L680 478C680 495.121 666.121 509 649 509L59 509C41.8792 509 28 495.121 28 478L28 48C28 30.8792 41.8792 17 59 17Z" fill="#000000" fill-rule="evenodd" opacity="1" stroke="none"/>
<path d="M59 17L649 17C666.121 17 680 30.8792 680 48L680 478C680 495.121 666.121 509 649 509L59 509C41.8792 509 28 495.121 28 478L28 48C28 30.8792 41.8792 17 59 17Z" fill="#ffffff" fill-rule="evenodd" opacity="1" stroke="none"/>
</g>
<g opacity="1" vectornator:mask="#Fill">
<clipPath id="ClipPath">
<use overflow="#visible" xlink:href="#Fill"/>
</clipPath>
<g clip-path="url(#ClipPath)">
<path d="M28 17L157 17L157 17L157 539L157 539L28 539L28 539L28 17L28 17Z" fill="#f5f9ff" fill-rule="evenodd" opacity="1" stroke="none"/>
</g>
</g>
<g opacity="1" vectornator:mask="#Fill_2">
<clipPath id="ClipPath_2">
<use overflow="#visible" xlink:href="#Fill_2"/>
</clipPath>
<g clip-path="url(#ClipPath_2)">
<path d="M60.5 92L114.5 92C115.881 92 117 93.1193 117 94.5L117 94.5C117 95.8807 115.881 97 114.5 97L60.5 97C59.1193 97 58 95.8807 58 94.5L58 94.5C58 93.1193 59.1193 92 60.5 92Z" fill="#adc6e2" fill-rule="evenodd" opacity="1" stroke="none"/>
</g>
</g>
<g opacity="1" vectornator:mask="#Fill_3">
<clipPath id="ClipPath_3">
<use overflow="#visible" xlink:href="#Fill_3"/>
</clipPath>
<g clip-path="url(#ClipPath_3)">
<path d="M189.5 90L311.5 90C312.881 90 314 91.1193 314 92.5L314 92.5C314 93.8807 312.881 95 311.5 95L189.5 95C188.119 95 187 93.8807 187 92.5L187 92.5C187 91.1193 188.119 90 189.5 90Z" fill="#adc6e2" fill-rule="evenodd" opacity="1" stroke="none"/>
</g>
</g>
<g opacity="1" vectornator:mask="#Fill_4">
<clipPath id="ClipPath_4">
<use overflow="#visible" xlink:href="#Fill_4"/>
</clipPath>
<g clip-path="url(#ClipPath_4)">
<path d="M189.5 105L243.5 105C244.881 105 246 106.119 246 107.5L246 107.5C246 108.881 244.881 110 243.5 110L189.5 110C188.119 110 187 108.881 187 107.5L187 107.5C187 106.119 188.119 105 189.5 105Z" fill="#c3d7e9" fill-rule="evenodd" opacity="1" stroke="none"/>
</g>
</g>
<g opacity="1" vectornator:mask="#Fill_5">
<clipPath id="ClipPath_5">
<use overflow="#visible" xlink:href="#Fill_5"/>
</clipPath>
<g clip-path="url(#ClipPath_5)">
<path d="M253.5 105L285.5 105C286.881 105 288 106.119 288 107.5L288 107.5C288 108.881 286.881 110 285.5 110L253.5 110C252.119 110 251 108.881 251 107.5L251 107.5C251 106.119 252.119 105 253.5 105Z" fill="#c3d7e9" fill-rule="evenodd" opacity="1" stroke="none"/>
</g>
</g>
<g opacity="1" vectornator:mask="#Fill_6">
<clipPath id="ClipPath_6">
<use overflow="#visible" xlink:href="#Fill_6"/>
</clipPath>
<g clip-path="url(#ClipPath_6)">
<path d="M60.5 184L114.5 184C115.881 184 117 185.119 117 186.5L117 186.5C117 187.881 115.881 189 114.5 189L60.5 189C59.1193 189 58 187.881 58 186.5L58 186.5C58 185.119 59.1193 184 60.5 184Z" fill="#adc6e2" fill-rule="evenodd" opacity="1" stroke="none"/>
</g>
</g>
<g opacity="1" vectornator:mask="#Fill_7">
<clipPath id="ClipPath_7">
<use overflow="#visible" xlink:href="#Fill_7"/>
</clipPath>
<g clip-path="url(#ClipPath_7)">
<path d="M60.5 113L92.5 113C93.8807 113 95 114.119 95 115.5L95 115.5C95 116.881 93.8807 118 92.5 118L60.5 118C59.1193 118 58 116.881 58 115.5L58 115.5C58 114.119 59.1193 113 60.5 113Z" fill="#d2e0f1" fill-rule="evenodd" opacity="1" stroke="none"/>
</g>
</g>
<g opacity="1" vectornator:mask="#Fill_8">
<clipPath id="ClipPath_8">
<use overflow="#visible" xlink:href="#Fill_8"/>
</clipPath>
<g clip-path="url(#ClipPath_8)">
<path d="M60.5 139L92.5 139C93.8807 139 95 140.119 95 141.5L95 141.5C95 142.881 93.8807 144 92.5 144L60.5 144C59.1193 144 58 142.881 58 141.5L58 141.5C58 140.119 59.1193 139 60.5 139Z" fill="#d2e0f1" fill-rule="evenodd" opacity="1" stroke="none"/>
</g>
</g>
<g opacity="1" vectornator:mask="#Fill_9">
<clipPath id="ClipPath_9">
<use overflow="#visible" xlink:href="#Fill_9"/>
</clipPath>
<g clip-path="url(#ClipPath_9)">
<path d="M60.5 152L92.5 152C93.8807 152 95 153.119 95 154.5L95 154.5C95 155.881 93.8807 157 92.5 157L60.5 157C59.1193 157 58 155.881 58 154.5L58 154.5C58 153.119 59.1193 152 60.5 152Z" fill="#d2e0f1" fill-rule="evenodd" opacity="1" stroke="none"/>
</g>
</g>
<g opacity="1" vectornator:mask="#Fill_10">
<clipPath id="ClipPath_10">
<use overflow="#visible" xlink:href="#Fill_10"/>
</clipPath>
<g clip-path="url(#ClipPath_10)">
<path d="M60.5 205L92.5 205C93.8807 205 95 206.119 95 207.5L95 207.5C95 208.881 93.8807 210 92.5 210L60.5 210C59.1193 210 58 208.881 58 207.5L58 207.5C58 206.119 59.1193 205 60.5 205Z" fill="#d2e0f1" fill-rule="evenodd" opacity="1" stroke="none"/>
</g>
</g>
<g opacity="1" vectornator:mask="#Fill_11">
<clipPath id="ClipPath_11">
<use overflow="#visible" xlink:href="#Fill_11"/>
</clipPath>
<g clip-path="url(#ClipPath_11)">
<path d="M60.5 218L92.5 218C93.8807 218 95 219.119 95 220.5L95 220.5C95 221.881 93.8807 223 92.5 223L60.5 223C59.1193 223 58 221.881 58 220.5L58 220.5C58 219.119 59.1193 218 60.5 218Z" fill="#d2e0f1" fill-rule="evenodd" opacity="1" stroke="none"/>
</g>
</g>
<g opacity="1" vectornator:mask="#Fill_12">
<clipPath id="ClipPath_12">
<use overflow="#visible" xlink:href="#Fill_12"/>
</clipPath>
<g clip-path="url(#ClipPath_12)">
<path d="M60.5 231L92.5 231C93.8807 231 95 232.119 95 233.5L95 233.5C95 234.881 93.8807 236 92.5 236L60.5 236C59.1193 236 58 234.881 58 233.5L58 233.5C58 232.119 59.1193 231 60.5 231Z" fill="#d2e0f1" fill-rule="evenodd" opacity="1" stroke="none"/>
</g>
</g>
<g opacity="1" vectornator:mask="#Fill_13">
<clipPath id="ClipPath_13">
<use overflow="#visible" xlink:href="#Fill_13"/>
</clipPath>
<g clip-path="url(#ClipPath_13)">
<path d="M60.5 244L92.5 244C93.8807 244 95 245.119 95 246.5L95 246.5C95 247.881 93.8807 249 92.5 249L60.5 249C59.1193 249 58 247.881 58 246.5L58 246.5C58 245.119 59.1193 244 60.5 244Z" fill="#d2e0f1" fill-rule="evenodd" opacity="1" stroke="none"/>
</g>
</g>
<g opacity="1" vectornator:mask="#Fill_14">
<clipPath id="ClipPath_14">
<use overflow="#visible" xlink:href="#Fill_14"/>
</clipPath>
<g clip-path="url(#ClipPath_14)">
<path d="M60.5 126L92.5 126C93.8807 126 95 127.119 95 128.5L95 128.5C95 129.881 93.8807 131 92.5 131L60.5 131C59.1193 131 58 129.881 58 128.5L58 128.5C58 127.119 59.1193 126 60.5 126Z" fill="#d2e0f1" fill-rule="evenodd" opacity="1" stroke="none"/>
</g>
</g>
</g>
<path d="M58 41C58 38.2386 60.2386 36 63 36C65.7614 36 68 38.2386 68 41C68 43.7614 65.7614 46 63 46C60.2386 46 58 43.7614 58 41Z" fill="#80ebff" fill-rule="evenodd" opacity="1" stroke="none"/>
<path d="M74 41C74 38.2386 76.2386 36 79 36C81.7614 36 84 38.2386 84 41C84 43.7614 81.7614 46 79 46C76.2386 46 74 43.7614 74 41Z" fill="#fd7a8c" fill-rule="evenodd" opacity="1" stroke="none"/>
<path d="M90 41C90 38.2386 92.2386 36 95 36C97.7614 36 100 38.2386 100 41C100 43.7614 97.7614 46 95 46C92.2386 46 90 43.7614 90 41Z" fill="#fee895" fill-rule="evenodd" opacity="1" stroke="none"/>
</g>
</g>
</svg>
