<?xml version="1.0" encoding="UTF-8" standalone="no"?>
<!DOCTYPE svg PUBLIC "-//W3C//DTD SVG 1.1//EN" "http://www.w3.org/Graphics/SVG/1.1/DTD/svg11.dtd">

<!-- Created with Vectornator (http://vectornator.io/) -->
<svg height="100%" stroke-miterlimit="10" style="fill-rule:nonzero;clip-rule:evenodd;stroke-linecap:round;stroke-linejoin:round;" version="1.1" viewBox="0 0 841.995 595.35" width="100%" xml:space="preserve" xmlns="http://www.w3.org/2000/svg" xmlns:vectornator="http://vectornator.io" xmlns:xlink="http://www.w3.org/1999/xlink">
<metadata>
<vectornator:setting key="IsTimeLapseWatermarkDisabled" value="false"/>
<vectornator:setting key="UndoHistoryDisabled" value="true"/>
<vectornator:setting key="VNDimensionsVisible" value="true"/>
<vectornator:setting key="VNSnapToGuides" value="true"/>
<vectornator:setting key="WDCMYKEnabledKey" value="false"/>
<vectornator:setting key="WDDisplayWhiteBackground" value="false"/>
<vectornator:setting key="WDDynamicGuides" value="false"/>
<vectornator:setting key="WDGuidesVisible" value="true"/>
<vectornator:setting key="WDIsolateActiveLayer" value="false"/>
<vectornator:setting key="WDOutlineMode" value="false"/>
<vectornator:setting key="WDRulersVisible" value="true"/>
<vectornator:setting key="WDSnapToEdges" value="true"/>
<vectornator:setting key="WDSnapToGrid" value="true"/>
<vectornator:setting key="WDSnapToPoints" value="true"/>
<vectornator:setting key="WDUnits" value="Millimeters"/>
</metadata>
<defs/>
<clipPath id="ArtboardFrame">
<rect height="595.35" width="841.995" x="0" y="0"/>
</clipPath>
<g clip-path="url(#ArtboardFrame)" id="Layer-1" vectornator:layerName="Layer 1">
<g opacity="1">
<g opacity="1">
<path d="M1.71026 359.403L563.907 34.819L845.005 197.111L282.808 521.695L1.71026 359.403Z" fill="#d4d4d4" fill-rule="evenodd" opacity="1" stroke="none"/>
<path d="M1.71026 359.403L282.808 521.695L282.808 575.793L1.71026 413.501L1.71026 359.403Z" fill="#707070" fill-rule="evenodd" opacity="1" stroke="none"/>
<path d="M282.808 575.793L845.005 251.208L845.005 197.111L282.808 521.695L282.808 575.793Z" fill="#9b9b9b" fill-rule="evenodd" opacity="1" stroke="none"/>
</g>
<path d="M17.3268 359.403L48.56 341.371" fill="#9b9b9b" fill-rule="evenodd" opacity="1" stroke="none"/>
<path d="M48.56 377.436L95.4097 350.387" fill="#9b9b9b" fill-rule="evenodd" opacity="1" stroke="none"/>
<g opacity="1">
<path d="M17.3268 359.403L17.3268 341.371L48.56 359.403L48.56 377.436L17.3268 359.403Z" fill="#1c9913" fill-rule="evenodd" opacity="1" stroke="none"/>
<path d="M17.3268 341.371L48.56 323.338L79.7931 341.371L48.56 359.403L17.3268 341.371Z" fill="#10ff00" fill-rule="evenodd" opacity="1" stroke="none"/>
<path d="M48.56 377.436L81.0394 358.684L79.7931 341.371L48.56 359.403" fill="#29cf1e" fill-rule="evenodd" opacity="1" stroke="none"/>
</g>
<g opacity="1">
<path d="M17.3268 359.403L17.3268 341.371L48.56 359.403L48.56 377.436L17.3268 359.403Z" fill="#1c9913" fill-rule="evenodd" opacity="1" stroke="none"/>
<path d="M17.3268 341.371L48.56 323.338L79.7931 341.371L48.56 359.403L17.3268 341.371Z" fill="#10ff00" fill-rule="evenodd" opacity="1" stroke="none"/>
<path d="M48.56 377.436L81.0394 358.684L79.7931 341.371L48.56 359.403" fill="#29cf1e" fill-rule="evenodd" opacity="1" stroke="none"/>
</g>
<g opacity="1">
<path d="M64.1765 332.355L64.1765 314.322L95.4097 332.355L95.4097 350.387L64.1765 332.355Z" fill="#1c9913" fill-rule="evenodd" opacity="1" stroke="none"/>
<path d="M64.1765 314.322L95.4097 296.29L126.643 314.322L95.4097 332.355L64.1765 314.322Z" fill="#10ff00" fill-rule="evenodd" opacity="1" stroke="none"/>
<path d="M95.4097 350.387L127.889 331.635L126.643 314.322L95.4097 332.355" fill="#29cf1e" fill-rule="evenodd" opacity="1" stroke="none"/>
</g>
<g opacity="1">
<path d="M111.026 305.306L111.026 287.273L142.259 305.306L142.259 323.338L111.026 305.306Z" fill="#1c9913" fill-rule="evenodd" opacity="1" stroke="none"/>
<path d="M111.026 287.273L142.259 269.241L173.492 287.273L142.259 305.306L111.026 287.273Z" fill="#10ff00" fill-rule="evenodd" opacity="1" stroke="none"/>
<path d="M142.259 323.338L174.739 304.586L173.492 287.273L142.259 305.306" fill="#29cf1e" fill-rule="evenodd" opacity="1" stroke="none"/>
</g>
<g opacity="1">
<path d="M156.63 278.257L156.63 260.225L187.863 278.257L187.863 296.29L156.63 278.257Z" fill="#1c9913" fill-rule="evenodd" opacity="1" stroke="none"/>
<path d="M156.63 260.225L187.863 242.192L219.096 260.225L187.863 278.257L156.63 260.225Z" fill="#10ff00" fill-rule="evenodd" opacity="1" stroke="none"/>
<path d="M187.863 296.29L220.342 277.538L219.096 260.225L187.863 278.257" fill="#29cf1e" fill-rule="evenodd" opacity="1" stroke="none"/>
</g>
<g opacity="1">
<path d="M203.479 251.208L203.479 233.176L234.712 251.208L234.712 269.241L203.479 251.208Z" fill="#1c9913" fill-rule="evenodd" opacity="1" stroke="none"/>
<path d="M203.479 233.176L234.712 215.144L265.946 233.176L234.712 251.208L203.479 233.176Z" fill="#10ff00" fill-rule="evenodd" opacity="1" stroke="none"/>
<path d="M234.712 269.241L267.192 250.489L265.946 233.176L234.712 251.208" fill="#29cf1e" fill-rule="evenodd" opacity="1" stroke="none"/>
</g>
<g opacity="1">
<path d="M251.575 224.16L251.575 206.127L282.808 224.16L282.808 242.192L251.575 224.16Z" fill="#1c9913" fill-rule="evenodd" opacity="1" stroke="none"/>
<path d="M251.575 206.127L282.808 188.095L314.042 206.127L282.808 224.16L251.575 206.127Z" fill="#10ff00" fill-rule="evenodd" opacity="1" stroke="none"/>
<path d="M282.808 242.192L315.288 223.44L314.042 206.127L282.808 224.16" fill="#29cf1e" fill-rule="evenodd" opacity="1" stroke="none"/>
</g>
<g opacity="1">
<path d="M297.179 197.111L297.179 179.079L328.412 197.111L328.412 215.144L297.179 197.111Z" fill="#1c9913" fill-rule="evenodd" opacity="1" stroke="none"/>
<path d="M297.179 179.079L328.412 161.046L359.645 179.079L328.412 197.111L297.179 179.079Z" fill="#10ff00" fill-rule="evenodd" opacity="1" stroke="none"/>
<path d="M328.412 215.144L360.891 196.392L359.645 179.079L328.412 197.111" fill="#29cf1e" fill-rule="evenodd" opacity="1" stroke="none"/>
</g>
<g opacity="1">
<path d="M345.275 170.062L345.275 152.03L376.508 170.062L376.508 188.095L345.275 170.062Z" fill="#1c9913" fill-rule="evenodd" opacity="1" stroke="none"/>
<path d="M345.275 152.03L376.508 133.998L407.741 152.03L376.508 170.062L345.275 152.03Z" fill="#10ff00" fill-rule="evenodd" opacity="1" stroke="none"/>
<path d="M376.508 188.095L408.987 169.343L407.741 152.03L376.508 170.062" fill="#29cf1e" fill-rule="evenodd" opacity="1" stroke="none"/>
</g>
<g opacity="1">
<path d="M437.728 115.965L437.728 97.9326L468.961 115.965L468.961 133.998L437.728 115.965Z" fill="#1c9913" fill-rule="evenodd" opacity="1" stroke="none"/>
<path d="M437.728 97.9326L468.961 79.9001L500.194 97.9326L468.961 115.965L437.728 97.9326Z" fill="#10ff00" fill-rule="evenodd" opacity="1" stroke="none"/>
<path d="M468.961 133.998L501.44 115.245L500.194 97.9326L468.961 115.965" fill="#29cf1e" fill-rule="evenodd" opacity="1" stroke="none"/>
</g>
<g opacity="1">
<path d="M484.578 88.9164L484.578 70.8839L515.811 88.9164L515.811 106.949L484.578 88.9164Z" fill="#1c9913" fill-rule="evenodd" opacity="1" stroke="none"/>
<path d="M484.578 70.8839L515.811 52.8514L547.044 70.8839L515.811 88.9164L484.578 70.8839Z" fill="#10ff00" fill-rule="evenodd" opacity="1" stroke="none"/>
<path d="M515.811 106.949L548.29 88.1968L547.044 70.8839L515.811 88.9164" fill="#29cf1e" fill-rule="evenodd" opacity="1" stroke="none"/>
</g>
<g opacity="1">
<path d="M532.674 61.8677L532.674 43.8352L563.907 61.8677L563.907 79.9001L532.674 61.8677Z" fill="#1c9913" fill-rule="evenodd" opacity="1" stroke="none"/>
<path d="M532.674 43.8352L563.907 25.8028L595.14 43.8352L563.907 61.8677L532.674 43.8352Z" fill="#10ff00" fill-rule="evenodd" opacity="1" stroke="none"/>
<path d="M563.907 79.9001L596.386 61.1481L595.14 43.8352L563.907 61.8677" fill="#29cf1e" fill-rule="evenodd" opacity="1" stroke="none"/>
</g>
<g opacity="1">
<path d="M563.907 260.225L563.907 242.192L595.14 260.225L595.14 278.257L563.907 260.225Z" fill="#1c9913" fill-rule="evenodd" opacity="1" stroke="none"/>
<path d="M563.907 242.192L595.14 224.16L626.373 242.192L595.14 260.225L563.907 242.192Z" fill="#10ff00" fill-rule="evenodd" opacity="1" stroke="none"/>
<path d="M595.14 278.257L627.619 259.505L626.373 242.192L595.14 260.225" fill="#29cf1e" fill-rule="evenodd" opacity="1" stroke="none"/>
</g>
<g opacity="1">
<path d="M610.756 287.273L610.756 269.241L641.99 287.273L641.99 305.306L610.756 287.273Z" fill="#1c9913" fill-rule="evenodd" opacity="1" stroke="none"/>
<path d="M610.756 269.241L641.99 251.208L673.223 269.241L641.99 287.273L610.756 269.241Z" fill="#10ff00" fill-rule="evenodd" opacity="1" stroke="none"/>
<path d="M641.99 305.306L674.469 286.554L673.223 269.241L641.99 287.273" fill="#29cf1e" fill-rule="evenodd" opacity="1" stroke="none"/>
</g>
<g opacity="1">
<path d="M563.907 314.322L563.907 296.29L595.14 314.322L595.14 332.355L563.907 314.322Z" fill="#1c9913" fill-rule="evenodd" opacity="1" stroke="none"/>
<path d="M563.907 296.29L595.14 278.257L626.373 296.29L595.14 314.322L563.907 296.29Z" fill="#10ff00" fill-rule="evenodd" opacity="1" stroke="none"/>
<path d="M595.14 332.355L627.619 313.603L626.373 296.29L595.14 314.322" fill="#29cf1e" fill-rule="evenodd" opacity="1" stroke="none"/>
</g>
<g opacity="1">
<path d="M657.606 260.225L657.606 242.192L688.839 260.225L688.839 278.257L657.606 260.225Z" fill="#1c9913" fill-rule="evenodd" opacity="1" stroke="none"/>
<path d="M657.606 242.192L688.839 224.16L720.072 242.192L688.839 260.225L657.606 242.192Z" fill="#10ff00" fill-rule="evenodd" opacity="1" stroke="none"/>
<path d="M688.839 278.257L721.319 259.505L720.072 242.192L688.839 260.225" fill="#29cf1e" fill-rule="evenodd" opacity="1" stroke="none"/>
</g>
<g opacity="1">
<path d="M79.7931 395.468L79.7931 377.436L111.026 395.468L111.026 413.501L79.7931 395.468Z" fill="#4e82bb" fill-rule="evenodd" opacity="1" stroke="none"/>
<path d="M79.7931 377.436L126.643 350.387L157.876 368.419L111.026 395.468L79.7931 377.436Z" fill="#6eb4ff" fill-rule="evenodd" opacity="1" stroke="none"/>
<path d="M111.026 413.501L157.876 386.452L157.876 368.419L111.026 395.468L111.026 413.501Z" fill="#61a2e8" fill-rule="evenodd" opacity="1" stroke="none"/>
</g>
<g opacity="1">
<path d="M142.259 359.403L142.259 341.371L173.492 359.403L173.492 377.436L142.259 359.403Z" fill="#1c9913" fill-rule="evenodd" opacity="1" stroke="none"/>
<path d="M142.259 341.371L173.492 323.338L204.726 341.371L173.492 359.403L142.259 341.371Z" fill="#10ff00" fill-rule="evenodd" opacity="1" stroke="none"/>
<path d="M173.492 377.436L205.972 358.684L204.726 341.371L173.492 359.403" fill="#29cf1e" fill-rule="evenodd" opacity="1" stroke="none"/>
</g>
<g opacity="1">
<path d="M189.109 332.355L189.109 314.322L220.342 332.355L220.342 350.387L189.109 332.355Z" fill="#1c9913" fill-rule="evenodd" opacity="1" stroke="none"/>
<path d="M189.109 314.322L220.342 296.29L251.575 314.322L220.342 332.355L189.109 314.322Z" fill="#10ff00" fill-rule="evenodd" opacity="1" stroke="none"/>
<path d="M220.342 350.387L252.822 331.635L251.575 314.322L220.342 332.355" fill="#29cf1e" fill-rule="evenodd" opacity="1" stroke="none"/>
</g>
<g opacity="1">
<path d="M235.959 305.306L235.959 287.273L267.192 305.306L267.192 323.338L235.959 305.306Z" fill="#1c9913" fill-rule="evenodd" opacity="1" stroke="none"/>
<path d="M235.959 287.273L267.192 269.241L298.425 287.273L267.192 305.306L235.959 287.273Z" fill="#10ff00" fill-rule="evenodd" opacity="1" stroke="none"/>
<path d="M267.192 323.338L299.671 304.586L298.425 287.273L267.192 305.306" fill="#29cf1e" fill-rule="evenodd" opacity="1" stroke="none"/>
</g>
<g opacity="1">
<path d="M282.808 278.257L282.808 260.225L314.042 278.257L314.042 296.29L282.808 278.257Z" fill="#1c9913" fill-rule="evenodd" opacity="1" stroke="none"/>
<path d="M282.808 260.225L314.042 242.192L345.275 260.225L314.042 278.257L282.808 260.225Z" fill="#10ff00" fill-rule="evenodd" opacity="1" stroke="none"/>
<path d="M314.042 296.29L346.521 277.538L345.275 260.225L314.042 278.257" fill="#29cf1e" fill-rule="evenodd" opacity="1" stroke="none"/>
</g>
<g opacity="1">
<path d="M329.658 251.208L329.658 233.176L360.891 251.208L360.891 269.241L329.658 251.208Z" fill="#1c9913" fill-rule="evenodd" opacity="1" stroke="none"/>
<path d="M329.658 233.176L360.891 215.144L392.124 233.176L360.891 251.208L329.658 233.176Z" fill="#10ff00" fill-rule="evenodd" opacity="1" stroke="none"/>
<path d="M360.891 269.241L393.371 250.489L392.124 233.176L360.891 251.208" fill="#29cf1e" fill-rule="evenodd" opacity="1" stroke="none"/>
</g>
<g opacity="1">
<path d="M423.358 197.111L423.358 179.079L454.591 197.111L454.591 215.144L423.358 197.111Z" fill="#4e82bb" fill-rule="evenodd" opacity="1" stroke="none"/>
<path d="M423.358 179.079L470.207 152.03L501.44 170.062L454.591 197.111L423.358 179.079Z" fill="#6eb4ff" fill-rule="evenodd" opacity="1" stroke="none"/>
<path d="M454.591 215.144L501.44 188.095L501.44 170.062L454.591 197.111L454.591 215.144Z" fill="#61a2e8" fill-rule="evenodd" opacity="1" stroke="none"/>
</g>
<g opacity="1">
<path d="M376.508 224.16L376.508 206.127L407.741 224.16L407.741 242.192L376.508 224.16Z" fill="#1c9913" fill-rule="evenodd" opacity="1" stroke="none"/>
<path d="M376.508 206.127L407.741 188.095L438.974 206.127L407.741 224.16L376.508 206.127Z" fill="#10ff00" fill-rule="evenodd" opacity="1" stroke="none"/>
<path d="M407.741 242.192L440.22 223.44L438.974 206.127L407.741 224.16" fill="#29cf1e" fill-rule="evenodd" opacity="1" stroke="none"/>
</g>
<path d="M127.509 403.984L173.492 377.436" fill="#61a2e8" fill-rule="evenodd" opacity="1" stroke="none"/>
<g opacity="1">
<path d="M126.643 422.517L127.509 403.984L157.876 422.517L157.876 440.549L126.643 422.517Z" fill="#4e82bb" fill-rule="evenodd" opacity="1" stroke="none"/>
<path d="M127.509 403.984L188.791 368.603L220.342 386.452L157.876 422.517L127.509 403.984Z" fill="#6eb4ff" fill-rule="evenodd" opacity="1" stroke="none"/>
<path d="M157.876 440.549L220.342 404.484L220.342 386.452L157.876 422.517L157.876 440.549Z" fill="#61a1e7" fill-rule="evenodd" opacity="1" stroke="none"/>
</g>
<g opacity="1">
<path d="M204.726 377.436L204.726 359.403L235.959 377.436L235.959 395.468L204.726 377.436Z" fill="#1c9913" fill-rule="evenodd" opacity="1" stroke="none"/>
<path d="M204.726 359.403L235.959 341.371L267.192 359.403L235.959 377.436L204.726 359.403Z" fill="#10ff00" fill-rule="evenodd" opacity="1" stroke="none"/>
<path d="M235.959 395.468L268.438 376.716L267.192 359.403L235.959 377.436" fill="#29cf1e" fill-rule="evenodd" opacity="1" stroke="none"/>
</g>
<g opacity="1">
<path d="M250.329 350.387L250.329 332.355L281.562 350.387L281.562 368.419L250.329 350.387Z" fill="#1c9913" fill-rule="evenodd" opacity="1" stroke="none"/>
<path d="M250.329 332.355L281.562 314.322L312.795 332.355L281.562 350.387L250.329 332.355Z" fill="#10ff00" fill-rule="evenodd" opacity="1" stroke="none"/>
<path d="M281.562 368.419L314.042 349.667L312.795 332.355L281.562 350.387" fill="#29cf1e" fill-rule="evenodd" opacity="1" stroke="none"/>
</g>
<g opacity="1">
<path d="M297.179 323.338L297.179 305.306L328.412 323.338L328.412 341.371L297.179 323.338Z" fill="#1c9913" fill-rule="evenodd" opacity="1" stroke="none"/>
<path d="M297.179 305.306L328.412 287.273L359.645 305.306L328.412 323.338L297.179 305.306Z" fill="#10ff00" fill-rule="evenodd" opacity="1" stroke="none"/>
<path d="M328.412 341.371L360.891 322.619L359.645 305.306L328.412 323.338" fill="#29cf1e" fill-rule="evenodd" opacity="1" stroke="none"/>
</g>
<g opacity="1">
<path d="M344.028 296.29L344.028 278.257L375.262 296.29L375.262 314.322L344.028 296.29Z" fill="#1c9913" fill-rule="evenodd" opacity="1" stroke="none"/>
<path d="M344.028 278.257L375.262 260.225L406.495 278.257L375.262 296.29L344.028 278.257Z" fill="#10ff00" fill-rule="evenodd" opacity="1" stroke="none"/>
<path d="M375.262 314.322L407.741 295.57L406.495 278.257L375.262 296.29" fill="#29cf1e" fill-rule="evenodd" opacity="1" stroke="none"/>
</g>
<g opacity="1">
<path d="M392.124 269.241L392.124 251.208L423.358 269.241L423.358 287.273L392.124 269.241Z" fill="#1c9913" fill-rule="evenodd" opacity="1" stroke="none"/>
<path d="M392.124 251.208L423.358 233.176L454.591 251.208L423.358 269.241L392.124 251.208Z" fill="#10ff00" fill-rule="evenodd" opacity="1" stroke="none"/>
<path d="M423.358 287.273L455.837 268.521L454.591 251.208L423.358 269.241" fill="#29cf1e" fill-rule="evenodd" opacity="1" stroke="none"/>
</g>
<path d="M485.824 215.144L532.674 188.095" fill="#29cf1e" fill-rule="evenodd" opacity="1" stroke="none"/>
<path d="M471.046 205.643L517.596 179.489L580.093 215.572L494.159 265.186L462.91 247.144L501.971 224.593L471.046 205.643Z" fill="#67a8ee" fill-rule="evenodd" opacity="1" stroke="none"/>
<path d="M471.046 205.643L470.723 224.593L486.53 233.507L501.971 224.593L471.046 205.643Z" fill="#4e82bb" fill-rule="evenodd" opacity="1" stroke="none"/>
<path d="M462.91 247.144L462.91 265.186L494.159 283.227L494.159 265.186L462.91 247.144Z" fill="#4e82bb" fill-rule="evenodd" opacity="1" stroke="none"/>
<path d="M494.159 283.227L579.123 233.407L580.093 215.572L494.159 265.186L494.159 283.227Z" fill="#61a2e8" fill-rule="evenodd" opacity="1" stroke="none"/>
<g opacity="1">
<path d="M501.706 152.233L501.706 134.2L532.939 152.233L532.939 170.265L501.706 152.233Z" fill="#1c9913" fill-rule="evenodd" opacity="1" stroke="none"/>
<path d="M501.706 134.2L532.939 116.168L564.172 134.2L532.939 152.233L501.706 134.2Z" fill="#10ff00" fill-rule="evenodd" opacity="1" stroke="none"/>
<path d="M532.939 170.265L565.418 151.513L564.172 134.2L532.939 152.233" fill="#29cf1e" fill-rule="evenodd" opacity="1" stroke="none"/>
</g>
<g opacity="1">
<path d="M547.337 125.177L547.337 107.145L578.57 125.177L578.57 143.21L547.337 125.177Z" fill="#1c9913" fill-rule="evenodd" opacity="1" stroke="none"/>
<path d="M547.337 107.145L578.57 89.1125L609.803 107.145L578.57 125.177L547.337 107.145Z" fill="#10ff00" fill-rule="evenodd" opacity="1" stroke="none"/>
<path d="M578.57 143.21L611.049 124.458L609.803 107.145L578.57 125.177" fill="#29cf1e" fill-rule="evenodd" opacity="1" stroke="none"/>
</g>
<g opacity="1">
<path d="M594.198 98.1084L594.198 80.0759L625.431 98.1084L625.431 116.141L594.198 98.1084Z" fill="#1c9913" fill-rule="evenodd" opacity="1" stroke="none"/>
<path d="M594.198 80.0759L625.431 62.0435L656.664 80.0759L625.431 98.1084L594.198 80.0759Z" fill="#10ff00" fill-rule="evenodd" opacity="1" stroke="none"/>
<path d="M625.431 116.141L657.911 97.3888L656.664 80.0759L625.431 98.1084" fill="#29cf1e" fill-rule="evenodd" opacity="1" stroke="none"/>
</g>
<g opacity="1">
<path d="M547.337 179.288L547.337 161.256L578.57 179.288L578.57 197.321L547.337 179.288Z" fill="#1c9913" fill-rule="evenodd" opacity="1" stroke="none"/>
<path d="M547.337 161.256L578.57 143.223L609.803 161.256L578.57 179.288L547.337 161.256Z" fill="#10ff00" fill-rule="evenodd" opacity="1" stroke="none"/>
<path d="M578.57 197.321L611.049 178.569L609.803 161.256L578.57 179.288" fill="#29cf1e" fill-rule="evenodd" opacity="1" stroke="none"/>
</g>
<g opacity="1">
<path d="M594.198 152.233L594.198 134.2L625.431 152.233L625.431 170.265L594.198 152.233Z" fill="#1c9913" fill-rule="evenodd" opacity="1" stroke="none"/>
<path d="M594.198 134.2L625.431 116.168L656.664 134.2L625.431 152.233L594.198 134.2Z" fill="#10ff00" fill-rule="evenodd" opacity="1" stroke="none"/>
<path d="M625.431 170.265L657.911 151.513L656.664 134.2L625.431 152.233" fill="#29cf1e" fill-rule="evenodd" opacity="1" stroke="none"/>
</g>
<g opacity="1">
<path d="M642.29 125.164L642.29 107.131L673.523 125.164L673.523 143.196L642.29 125.164Z" fill="#1c9913" fill-rule="evenodd" opacity="1" stroke="none"/>
<path d="M642.29 107.131L673.523 89.0989L704.756 107.131L673.523 125.164L642.29 107.131Z" fill="#10ff00" fill-rule="evenodd" opacity="1" stroke="none"/>
<path d="M673.523 143.196L706.003 124.444L704.756 107.131L673.523 125.164" fill="#29cf1e" fill-rule="evenodd" opacity="1" stroke="none"/>
</g>
<g opacity="1">
<path d="M594.198 206.33L594.198 188.298L625.431 206.33L625.431 224.363L594.198 206.33Z" fill="#1c9913" fill-rule="evenodd" opacity="1" stroke="none"/>
<path d="M594.198 188.298L625.431 170.265L656.664 188.298L625.431 206.33L594.198 188.298Z" fill="#10ff00" fill-rule="evenodd" opacity="1" stroke="none"/>
<path d="M625.431 224.363L657.911 205.611L656.664 188.298L625.431 206.33" fill="#29cf1e" fill-rule="evenodd" opacity="1" stroke="none"/>
</g>
<g opacity="1">
<path d="M641.059 179.288L641.059 161.256L672.293 179.288L672.293 197.321L641.059 179.288Z" fill="#1c9913" fill-rule="evenodd" opacity="1" stroke="none"/>
<path d="M641.059 161.256L672.293 143.223L703.526 161.256L672.293 179.288L641.059 161.256Z" fill="#10ff00" fill-rule="evenodd" opacity="1" stroke="none"/>
<path d="M672.293 197.321L704.772 178.569L703.526 161.256L672.293 179.288" fill="#29cf1e" fill-rule="evenodd" opacity="1" stroke="none"/>
</g>
<g opacity="1">
<path d="M689.152 152.233L689.152 134.2L720.385 152.233L720.385 170.265L689.152 152.233Z" fill="#1c9913" fill-rule="evenodd" opacity="1" stroke="none"/>
<path d="M689.152 134.2L720.385 116.168L751.618 134.2L720.385 152.233L689.152 134.2Z" fill="#10ff00" fill-rule="evenodd" opacity="1" stroke="none"/>
<path d="M720.385 170.265L752.864 151.513L751.618 134.2L720.385 152.233" fill="#29cf1e" fill-rule="evenodd" opacity="1" stroke="none"/>
</g>
<g opacity="1">
<path d="M720.416 224.179L721.282 205.646L751.649 224.179L751.649 242.211L720.416 224.179Z" fill="#4e82bb" fill-rule="evenodd" opacity="1" stroke="none"/>
<path d="M721.282 205.646L782.564 170.265L814.115 188.114L751.649 224.179L721.282 205.646Z" fill="#6eb4ff" fill-rule="evenodd" opacity="1" stroke="none"/>
<path d="M751.649 242.211L814.115 206.146L814.115 188.114L751.649 224.179L751.649 242.211Z" fill="#61a1e7" fill-rule="evenodd" opacity="1" stroke="none"/>
</g>
<path d="M173.581 431.482L252.862 385.709L283.019 404.746L204.917 449.838L173.581 431.482Z" fill="#6eb4ff" fill-rule="evenodd" opacity="1" stroke="none"/>
<path d="M173.581 431.482L173.676 449.838L204.917 467.875L204.917 449.838L173.581 431.482Z" fill="#4e82bb" fill-rule="evenodd" opacity="1" stroke="none"/>
<path d="M204.917 467.875L283.019 422.783L283.019 404.746L204.917 449.838L204.917 467.875Z" fill="#61a1e7" fill-rule="evenodd" opacity="1" stroke="none"/>
<g opacity="1">
<path d="M267.399 395.718L267.399 377.686L298.632 395.718L298.632 413.751L267.399 395.718Z" fill="#1c9913" fill-rule="evenodd" opacity="1" stroke="none"/>
<path d="M267.399 377.686L298.632 359.653L329.865 377.686L298.632 395.718L267.399 377.686Z" fill="#10ff00" fill-rule="evenodd" opacity="1" stroke="none"/>
<path d="M298.632 413.751L331.111 394.999L329.865 377.686L298.632 395.718" fill="#29cf1e" fill-rule="evenodd" opacity="1" stroke="none"/>
</g>
<g opacity="1">
<path d="M314.26 368.676L314.26 350.644L345.493 368.676L345.493 386.709L314.26 368.676Z" fill="#1c9913" fill-rule="evenodd" opacity="1" stroke="none"/>
<path d="M314.26 350.644L345.493 332.612L376.727 350.644L345.493 368.676L314.26 350.644Z" fill="#10ff00" fill-rule="evenodd" opacity="1" stroke="none"/>
<path d="M345.493 386.709L377.973 367.957L376.727 350.644L345.493 368.676" fill="#29cf1e" fill-rule="evenodd" opacity="1" stroke="none"/>
</g>
<g opacity="1">
<path d="M359.891 341.607L359.891 323.575L391.124 341.607L391.124 359.64L359.891 341.607Z" fill="#1c9913" fill-rule="evenodd" opacity="1" stroke="none"/>
<path d="M359.891 323.575L391.124 305.543L422.357 323.575L391.124 341.607L359.891 323.575Z" fill="#10ff00" fill-rule="evenodd" opacity="1" stroke="none"/>
<path d="M391.124 359.64L423.604 340.888L422.357 323.575L391.124 341.607" fill="#29cf1e" fill-rule="evenodd" opacity="1" stroke="none"/>
</g>
<g opacity="1">
<path d="M406.752 314.566L406.752 296.533L437.986 314.566L437.986 332.598L406.752 314.566Z" fill="#1c9913" fill-rule="evenodd" opacity="1" stroke="none"/>
<path d="M406.752 296.533L437.986 278.501L469.219 296.533L437.986 314.566L406.752 296.533Z" fill="#10ff00" fill-rule="evenodd" opacity="1" stroke="none"/>
<path d="M437.986 332.598L470.465 313.846L469.219 296.533L437.986 314.566" fill="#29cf1e" fill-rule="evenodd" opacity="1" stroke="none"/>
</g>
<g opacity="1">
<path d="M250.548 494.935L250.548 476.903L281.781 494.935L281.781 512.968L250.548 494.935Z" fill="#1c9913" fill-rule="evenodd" opacity="1" stroke="none"/>
<path d="M250.548 476.903L281.781 458.87L313.014 476.903L281.781 494.935L250.548 476.903Z" fill="#10ff00" fill-rule="evenodd" opacity="1" stroke="none"/>
<path d="M281.781 512.968L314.26 494.216L313.014 476.903L281.781 494.935" fill="#29cf1e" fill-rule="evenodd" opacity="1" stroke="none"/>
</g>
<g opacity="1">
<path d="M297.409 467.88L297.409 449.847L328.642 467.88L328.642 485.912L297.409 467.88Z" fill="#1c9913" fill-rule="evenodd" opacity="1" stroke="none"/>
<path d="M297.409 449.847L328.642 431.815L359.875 449.847L328.642 467.88L297.409 449.847Z" fill="#10ff00" fill-rule="evenodd" opacity="1" stroke="none"/>
<path d="M328.642 485.912L361.122 467.16L359.875 449.847L328.642 467.88" fill="#29cf1e" fill-rule="evenodd" opacity="1" stroke="none"/>
</g>
<g opacity="1">
<path d="M517.326 341.621L517.326 323.589L548.56 341.621L548.56 359.653L517.326 341.621Z" fill="#1c9913" fill-rule="evenodd" opacity="1" stroke="none"/>
<path d="M517.326 323.589L548.56 305.556L579.793 323.589L548.56 341.621L517.326 323.589Z" fill="#10ff00" fill-rule="evenodd" opacity="1" stroke="none"/>
<path d="M548.56 359.653L581.039 340.901L579.793 323.589L548.56 341.621" fill="#29cf1e" fill-rule="evenodd" opacity="1" stroke="none"/>
</g>
<g opacity="1">
<path d="M469.234 368.676L469.234 350.644L500.467 368.676L500.467 386.709L469.234 368.676Z" fill="#1c9913" fill-rule="evenodd" opacity="1" stroke="none"/>
<path d="M469.234 350.644L500.467 332.612L531.701 350.644L500.467 368.676L469.234 350.644Z" fill="#10ff00" fill-rule="evenodd" opacity="1" stroke="none"/>
<path d="M500.467 386.709L532.947 367.957L531.701 350.644L500.467 368.676" fill="#29cf1e" fill-rule="evenodd" opacity="1" stroke="none"/>
</g>
<path d="M345.501 422.783L454.844 359.653L486.239 378.494L376.742 440.82L345.501 422.783Z" fill="#67a8ee" fill-rule="evenodd" opacity="1" stroke="none"/>
<path d="M345.501 422.783L345.368 441.471L376.742 458.857L376.742 440.82L345.501 422.783Z" fill="#4e82bb" fill-rule="evenodd" opacity="1" stroke="none"/>
<path d="M376.742 458.857L486.085 395.727L486.239 378.494L376.742 440.82L376.742 458.857Z" fill="#61a1e7" fill-rule="evenodd" opacity="1" stroke="none"/>
</g>
</g>
</svg>
